# File created by Blade
# Date/Time:  Tue Jan 27 19:38:24 2015
#---------------------------------------------------------
:version 1.10
:name HOM
:units
  mass 1.0
  length 1.000000
  angle deg
:documentation
     Acclaim Skeleton File
:root
   axis xyz
   order TX TY TZ RX RY RZ
   position 0.000000 0.000000 0.000000
   orientation 0 0 0
:bonedata
   begin
      id 1
      name Spine_dum
      direction 0.000000 1.000000 0.000000
      length 6.116652
      axis 0.0 0.0 0.0 xyz
   end
   begin
      id 2
      name LeftUpLeg_dum
      direction 1.000000 0.000000 0.000000
      length 4.711765
      axis 0.0 0.0 0.0 xyz
   end
   begin
      id 3
      name RightUpLeg_dum
      direction -1.000000 0.000000 0.000000
      length 4.711765
      axis 0.0 0.0 0.0 xyz
   end
   begin
      id 4
      name Spine
      direction 0.000000 1.000000 0.000000
      length 0.000000
      axis 0.0 0.0 0.0 xyz
      dof rx ry rz
   end
   begin
      id 5
      name Spine_dum1
      direction 0.000000 1.000000 0.000000
      length 15.225563
      axis 0.0 0.0 0.0 xyz
   end
   begin
      id 6
      name Spine_dum2
      direction 0.000000 1.000000 0.000000
      length 8.977654
      axis 0.0 0.0 0.0 xyz
   end
   begin
      id 7
      name Spine_dum3
      direction 0.000000 1.000000 0.000000
      length 8.977654
      axis 0.0 0.0 0.0 xyz
   end
   begin
      id 8
      name Head
      direction 0.000000 1.000000 0.000000
      length 4.527550
      axis 0.0 0.0 0.0 xyz
      dof rx ry rz
   end
   begin
      id 9
      name LeftShoulder
      direction 1.000000 0.000000 0.000000
      length 7.110130
      axis 0.0 0.0 -90.0 xyz
      dof rx ry rz
   end
   begin
      id 10
      name LeftArm
      direction 1.000000 0.000000 0.000000
      length 10.398341
      axis 0.0 0.0 -90.0 xyz
      dof rx ry rz
   end
   begin
      id 11
      name LeftForeArm
      direction 1.000000 0.000000 0.000000
      length 8.888997
      axis 0.0 0.0 -90.0 xyz
      dof ry rz rx
   end
   begin
      id 12
      name LeftHand
      direction 0.000000 0.000000 0.000000
      length 0.000000
      axis 0.0 0.0 -90.0 xyz
      dof rx ry rz
   end
   begin
      id 13
      name LeftHand_dum1
      direction 0.000000 0.000000 0.000000
      length 0.000000
      axis 0.0 0.0 -90.0 xyz
   end
   begin
      id 14
      name LeftHand_dum2
      direction 1.000000 0.000000 0.000000
      length 3.937000
      axis 0.0 0.0 -90.0 xyz
   end
   begin
      id 15
      name LeftHandThumb1
      direction 0.000000 0.000000 1.000000
      length 3.937000
      axis 0.0 0.0 -90.0 xyz
      dof rx rz ry
   end
   begin
      id 16
      name RightShoulder
      direction -1.000000 0.000000 0.000000
      length 7.110130
      axis 0.0 0.0 90.0 xyz
      dof rx ry rz
   end
   begin
      id 17
      name RightArm
      direction -1.000000 0.000000 0.000000
      length 10.398341
      axis 0.0 0.0 90.0 xyz
      dof rx ry rz
   end
   begin
      id 18
      name RightForeArm
      direction -1.000000 0.000000 0.000000
      length 8.888997
      axis 0.0 0.0 90.0 xyz
      dof ry rz rx
   end
   begin
      id 19
      name RightHand
      direction 0.000000 0.000000 0.000000
      length 0.000000
      axis 0.0 0.0 90.0 xyz
      dof rx ry rz
   end
   begin
      id 20
      name RightHand_dum1
      direction 0.000000 0.000000 0.000000
      length 0.000000
      axis 0.0 0.0 90.0 xyz
   end
   begin
      id 21
      name RightHand_dum2
      direction -1.000000 0.000000 0.000000
      length 3.937000
      axis 0.0 0.0 90.0 xyz
   end
   begin
      id 22
      name RightHandThumb1
      direction 0.000000 0.000000 1.000000
      length 3.937000
      axis 0.0 0.0 90.0 xyz
      dof rx rz ry
   end
   begin
      id 23
      name LeftUpLeg
      direction 0.000000 -1.000000 0.000000
      length 15.510451
      axis 0.0 0.0 0.0 xyz
      dof rx ry rz
   end
   begin
      id 24
      name LeftLeg
      direction 0.000000 -1.000000 0.000000
      length 14.858061
      axis 0.0 0.0 0.0 xyz
      dof rx ry rz
   end
   begin
      id 25
      name LeftFoot
      direction 0.000000 -0.258819 0.965926
      length 5.128852
      axis 15.0 0.0 0.0 xyz
      dof rx ry rz
   end
   begin
      id 26
      name LeftToeBase
      direction 0.000000 0.000000 1.000000
      length 2.952750
      axis 0.0 0.0 0.0 xyz
      dof rx ry rz
   end
   begin
      id 27
      name RightUpLeg
      direction 0.000000 -1.000000 0.000000
      length 15.510451
      axis 0.0 0.0 0.0 xyz
      dof rx ry rz
   end
   begin
      id 28
      name RightLeg
      direction 0.000000 -1.000000 0.000000
      length 14.858061
      axis 0.0 0.0 0.0 xyz
      dof rx ry rz
   end
   begin
      id 29
      name RightFoot
      direction 0.000000 -0.258819 0.965926
      length 5.128852
      axis 15.0 0.0 0.0 xyz
      dof rx ry rz
   end
   begin
      id 30
      name RightToeBase
      direction 0.000000 0.000000 1.000000
      length 2.952750
      axis 0.0 0.0 0.0 xyz
      dof rx ry rz
   end
:hierarchy
   begin
      root Spine_dum LeftUpLeg_dum RightUpLeg_dum
      Spine_dum Spine
      LeftUpLeg_dum LeftUpLeg
      RightUpLeg_dum RightUpLeg
      Spine Spine_dum1 Spine_dum2 Spine_dum3
      Spine_dum1 Head
      Spine_dum2 LeftShoulder
      Spine_dum3 RightShoulder
      LeftShoulder LeftArm
      LeftArm LeftForeArm
      LeftForeArm LeftHand
      LeftHand LeftHand_dum1 LeftHand_dum2
      LeftHand_dum1 LeftHandThumb1
      RightShoulder RightArm
      RightArm RightForeArm
      RightForeArm RightHand
      RightHand RightHand_dum1 RightHand_dum2
      RightHand_dum1 RightHandThumb1
      LeftUpLeg LeftLeg
      LeftLeg LeftFoot
      LeftFoot LeftToeBase
      RightUpLeg RightLeg
      RightLeg RightFoot
      RightFoot RightToeBase
   end

# File created by Blade
# Date/Time:  Tue Jan 27 19:38:14 2015
# Frame Rate: 120.000 fps
#------------------------------------------------------
:FULLY-SPECIFIED
:DEGREES
722
root 4.708211 32.305521 1.751901 -6.029357 11.634919 0.902900
Spine 5.558443 30.278552 1.510120
Head 12.890536 -14.837781 8.117427
LeftShoulder -0.529454 -11.777419 26.183810
LeftArm -0.079226 50.026945 -101.727472
LeftForeArm 5.598241 -0.000000 11.420755
LeftHand 10.175974 -0.000000 -8.701392
LeftHandThumb1 -26.253704 0.000000 33.147579
RightShoulder 6.978213 12.694226 -26.798135
RightArm 64.142437 -59.977139 66.373622
RightForeArm -16.654682 0.000000 31.609889
RightHand 17.810447 0.000000 14.587401
RightHandThumb1 -24.326973 -0.000000 -32.862282
LeftUpLeg 6.735534 -8.556714 -4.447437
LeftLeg 6.438672 -0.000000 -0.000000
LeftFoot -15.287383 8.677724 -19.787698
LeftToeBase 17.171935 -0.000000 -0.000000
RightUpLeg 10.409351 -15.531211 0.779897
RightLeg 2.402966 -0.000000 -0.000000
RightFoot -14.410002 -15.563860 13.828958
RightToeBase 9.408914 -0.000000 -0.000000
723
root 4.710021 32.305852 1.750004 -6.044085 11.596881 0.908114
Spine 5.564282 30.240494 1.516666
Head 12.936726 -14.778360 8.094198
LeftShoulder -0.570902 -11.700360 26.176948
LeftArm -0.024550 50.003501 -101.649750
LeftForeArm 5.504414 0.000000 11.374015
LeftHand 10.176373 -0.000000 -8.940379
LeftHandThumb1 -26.253704 0.000000 33.147579
RightShoulder 6.976400 12.647644 -26.809324
RightArm 64.090191 -59.922326 66.423442
RightForeArm -16.601770 -0.000000 31.837833
RightHand 17.853392 -0.000000 14.562935
RightHandThumb1 -24.326973 -0.000000 -32.862282
LeftUpLeg 6.745732 -8.524540 -4.457083
LeftLeg 6.453076 -0.000000 -0.000000
LeftFoot -15.289679 8.683566 -19.780673
LeftToeBase 17.116682 -0.000000 -0.000000
RightUpLeg 10.408808 -15.519810 0.770017
RightLeg 2.416433 -0.000000 -0.000000
RightFoot -14.373460 -15.562196 13.773675
RightToeBase 9.280840 -0.000000 -0.000000
724
root 4.712390 32.306563 1.747761 -6.048399 11.575837 0.909007
Spine 5.555459 30.174554 1.521196
Head 12.968028 -14.742887 8.059462
LeftShoulder -0.601956 -11.668536 26.163234
LeftArm -0.062064 49.938656 -101.639412
LeftForeArm 5.462888 -0.000000 11.307181
LeftHand 10.246450 -0.000000 -8.988731
LeftHandThumb1 -26.253704 0.000000 33.147579
RightShoulder 6.970187 12.588886 -26.805332
RightArm 64.146660 -59.897867 66.353986
RightForeArm -16.465541 -0.000000 32.051311
RightHand 17.900349 -0.000000 14.512012
RightHandThumb1 -24.326973 -0.000000 -32.862282
LeftUpLeg 6.745229 -8.505163 -4.456825
LeftLeg 6.460247 -0.000000 -0.000000
LeftFoot -15.284728 8.660387 -19.817856
LeftToeBase 17.131937 -0.000000 -0.000000
RightUpLeg 10.402959 -15.518499 0.761164
RightLeg 2.429934 -0.000000 -0.000000
RightFoot -14.396198 -15.524946 13.800089
RightToeBase 9.439124 -0.000000 -0.000000
725
root 4.715929 32.306884 1.746008 -6.060388 11.542741 0.913915
Spine 5.559462 30.105625 1.533300
Head 13.001153 -14.671945 8.020188
LeftShoulder -0.639757 -11.637154 26.144285
LeftArm -0.119268 49.862613 -101.645854
LeftForeArm 5.511215 0.000000 11.258056
LeftHand 10.240515 -0.000000 -8.943148
LeftHandThumb1 -26.253704 0.000000 33.147579
RightShoulder 6.967338 12.584763 -26.804184
RightArm 64.067181 -59.897157 66.404070
RightForeArm -16.317091 -0.000000 32.300619
RightHand 17.993845 -0.000000 14.359432
RightHandThumb1 -24.326973 -0.000000 -32.862282
LeftUpLeg 6.759466 -8.510281 -4.475517
LeftLeg 6.469240 -0.000000 -0.000000
LeftFoot -15.246083 8.712183 -19.685838
LeftToeBase 16.896244 -0.000000 -0.000000
RightUpLeg 10.399923 -15.521022 0.744841
RightLeg 2.452835 -0.000000 -0.000000
RightFoot -14.391877 -15.499430 13.796768
RightToeBase 9.372610 -0.000000 -0.000000
726
root 4.717148 32.307750 1.746161 -6.083411 11.507711 0.911401
Spine 5.570718 30.038725 1.545923
Head 13.022767 -14.635765 7.990059
LeftShoulder -0.683596 -11.613701 26.136665
LeftArm -0.181300 49.851341 -101.663351
LeftForeArm 5.550435 0.000000 11.216183
LeftHand 10.211140 -0.000000 -8.815255
LeftHandThumb1 -26.253704 0.000000 33.147579
RightShoulder 6.957530 12.533903 -26.782817
RightArm 64.134564 -59.880944 66.310318
RightForeArm -16.071773 0.000000 32.541941
RightHand 18.014314 -0.000000 14.349245
RightHandThumb1 -24.326973 -0.000000 -32.862282
LeftUpLeg 6.782729 -8.483189 -4.476742
LeftLeg 6.466909 -0.000000 -0.000000
LeftFoot -15.297275 8.712618 -19.821983
LeftToeBase 17.152542 -0.000000 -0.000000
RightUpLeg 10.408111 -15.531812 0.734260
RightLeg 2.479460 -0.000000 -0.000000
RightFoot -14.388702 -15.446917 13.796341
RightToeBase 9.394500 -0.000000 -0.000000
727
root 4.720450 32.308084 1.745240 -6.092911 11.476105 0.922930
Spine 5.578242 29.963060 1.551749
Head 13.027771 -14.577652 7.934150
LeftShoulder -0.715340 -11.611601 26.111489
LeftArm -0.288044 49.821803 -101.705264
LeftForeArm 5.640569 0.000000 11.184991
LeftHand 10.176202 -0.000000 -8.735528
LeftHandThumb1 -26.253704 0.000000 33.147579
RightShoulder 6.973768 12.570482 -26.773113
RightArm 64.023079 -59.888367 66.402531
RightForeArm -15.840294 -0.000000 32.737300
RightHand 18.144293 -0.000000 14.229258
RightHandThumb1 -24.326973 -0.000000 -32.862282
LeftUpLeg 6.800212 -8.498455 -4.501307
LeftLeg 6.464163 -0.000000 -0.000000
LeftFoot -15.308608 8.755490 -19.838362
LeftToeBase 17.104371 -0.000000 -0.000000
RightUpLeg 10.396145 -15.577876 0.706762
RightLeg 2.519925 -0.000000 -0.000000
RightFoot -14.380564 -15.406727 13.716824
RightToeBase 9.383758 -0.000000 -0.000000
728
root 4.723224 32.307529 1.744899 -6.122336 11.441889 0.921223
Spine 5.598784 29.883312 1.574532
Head 13.053379 -14.525751 7.883433
LeftShoulder -0.740656 -11.581632 26.108366
LeftArm -0.350828 49.780587 -101.733052
LeftForeArm 5.715023 0.000000 11.152586
LeftHand 10.114944 0.000000 -8.684819
LeftHandThumb1 -26.253704 0.000000 33.147579
RightShoulder 6.929909 12.478553 -26.726317
RightArm 64.415898 -59.887792 65.992747
RightForeArm -15.597967 -0.000000 32.905103
RightHand 18.264528 -0.000000 14.162399
RightHandThumb1 -24.326973 -0.000000 -32.862282
LeftUpLeg 6.823149 -8.473395 -4.510447
LeftLeg 6.490515 -0.000000 -0.000000
LeftFoot -15.275488 8.786641 -19.687648
LeftToeBase 16.939378 -0.000000 -0.000000
RightUpLeg 10.411765 -15.569874 0.697638
RightLeg 2.539454 -0.000000 -0.000000
RightFoot -14.362608 -15.413287 13.660653
RightToeBase 9.314185 -0.000000 -0.000000
729
root 4.723617 32.307017 1.744065 -6.134646 11.394543 0.924490
Spine 5.607725 29.829635 1.582124
Head 13.041793 -14.472587 7.829375
LeftShoulder -0.749798 -11.555322 26.100566
LeftArm -0.394114 49.720904 -101.734725
LeftForeArm 5.770500 -0.000000 11.098011
LeftHand 10.062356 0.000000 -8.450321
LeftHandThumb1 -26.253704 0.000000 33.147579
RightShoulder 6.906482 12.450673 -26.675494
RightArm 64.545103 -59.866750 65.874948
RightForeArm -15.509461 -0.000000 33.075030
RightHand 18.230518 -0.000000 14.179355
RightHandThumb1 -24.326973 -0.000000 -32.862282
LeftUpLeg 6.837100 -8.454896 -4.514190
LeftLeg 6.488225 -0.000000 -0.000000
LeftFoot -15.339675 8.796279 -19.833419
LeftToeBase 17.082785 -0.000000 -0.000000
RightUpLeg 10.403828 -15.514907 0.698599
RightLeg 2.570115 -0.000000 -0.000000
RightFoot -14.414817 -15.398124 13.715530
RightToeBase 9.443565 -0.000000 -0.000000
730
root 4.724215 32.305962 1.745337 -6.150833 11.326196 0.920970
Spine 5.611454 29.800667 1.595479
Head 13.038139 -14.433841 7.783634
LeftShoulder -0.755122 -11.535332 26.110819
LeftArm -0.452745 49.644059 -101.755275
LeftForeArm 5.805707 -0.000000 11.063083
LeftHand 9.986118 0.000000 -8.545887
LeftHandThumb1 -26.253704 0.000000 33.147579
RightShoulder 6.879553 12.386070 -26.625592
RightArm 64.612980 -59.819467 65.844358
RightForeArm -15.578077 0.000000 33.259612
RightHand 18.222744 -0.000000 14.084231
RightHandThumb1 -24.326973 -0.000000 -32.862282
LeftUpLeg 6.872441 -8.416432 -4.513819
LeftLeg 6.474817 -0.000000 -0.000000
LeftFoot -15.318932 8.813887 -19.729922
LeftToeBase 16.943433 -0.000000 -0.000000
RightUpLeg 10.405244 -15.448687 0.709061
RightLeg 2.575753 -0.000000 -0.000000
RightFoot -14.337957 -15.455355 13.579991
RightToeBase 9.149511 -0.000000 -0.000000
